<svg width="200" height="160" viewBox="0 0 200 160" fill="none" xmlns="http://www.w3.org/2000/svg">
<path d="M167.504 82.9349H4.10456C1.8372 82.9349 0 81.4647 0 79.6512C0 77.8378 1.8372 76.3676 4.10456 76.3676H166.71C166.967 76.3273 167.232 76.3063 167.504 76.3063C180.896 76.3063 191.791 67.5902 191.791 56.8767C191.791 46.1633 180.896 37.4467 167.504 37.4467C154.112 37.4467 143.217 46.1628 143.217 56.8763C143.217 58.6897 141.38 60.1599 139.112 60.1599C136.845 60.1599 135.008 58.6897 135.008 56.8763C135.008 42.5416 149.586 30.8794 167.504 30.8794C185.422 30.8794 200 42.5416 200 56.8763C200 70.9846 185.88 82.5041 168.352 82.8644C168.078 82.9108 167.795 82.9349 167.504 82.9349Z" fill="#32444D"/>
<path d="M83.3407 60.191H4.10456C1.8372 60.191 0 58.7208 0 56.9074C0 55.0939 1.8372 53.6237 4.10456 53.6237H82.5471C82.8038 53.5835 83.0692 53.5624 83.3407 53.5624C96.7325 53.5624 107.628 44.8463 107.628 34.1329C107.628 23.4194 96.7325 14.7033 83.3407 14.7033C69.9483 14.7033 59.0532 23.4194 59.0532 34.1329C59.0532 35.9463 57.216 37.4165 54.9486 37.4165C52.6812 37.4165 50.844 35.9463 50.844 34.1329C50.844 19.7982 65.4223 8.13599 83.3407 8.13599C101.259 8.13599 115.837 19.7982 115.837 34.1329C115.837 48.2412 101.717 59.7607 84.1884 60.121C83.9148 60.1665 83.6313 60.191 83.3407 60.191Z" fill="#32444D"/>
<path d="M133.637 151.865C115.719 151.865 101.14 140.203 101.14 125.868C101.14 124.055 102.977 122.584 105.245 122.584C107.512 122.584 109.349 124.055 109.349 125.868C109.349 136.581 120.245 145.298 133.637 145.298C147.029 145.298 157.924 136.581 157.924 125.868C157.924 115.155 147.029 106.438 133.637 106.438H4.10456C1.8372 106.438 0 104.968 0 103.155C0 101.341 1.8372 99.8711 4.10456 99.8711H133.637C151.555 99.8711 166.133 111.533 166.133 125.868C166.133 140.203 151.555 151.865 133.637 151.865Z" fill="#32444D"/>
</svg>
