<svg width="20" height="18" viewBox="0 0 20 18" fill="none" xmlns="http://www.w3.org/2000/svg">
<path d="M3.93936 18H16.0606C16.5626 18 16.9697 17.6337 16.9697 17.1818V7.90909C16.9697 7.45724 16.5626 7.09091 16.0606 7.09091H15.1515V4.63636C15.1515 2.07987 12.8405 0 9.99997 0C7.15943 0 4.84846 2.07987 4.84846 4.63636V7.09091H3.93936C3.4373 7.09091 3.03027 7.45724 3.03027 7.90909V17.1818C3.03027 17.6337 3.4373 18 3.93936 18ZM10.9091 12.8174V13.9091C10.9091 14.3609 10.502 14.7273 9.99997 14.7273C9.49791 14.7273 9.09088 14.3609 9.09088 13.9091V12.8174C8.72312 12.5684 8.48482 12.1725 8.48482 11.7273C8.48482 10.9754 9.16452 10.3636 9.99997 10.3636C10.8354 10.3636 11.5151 10.9754 11.5151 11.7273C11.5151 12.1725 11.2768 12.5684 10.9091 12.8174ZM6.66664 4.63636C6.66664 2.98216 8.16197 1.63636 9.99997 1.63636C11.838 1.63636 13.3333 2.98216 13.3333 4.63636V7.09091H6.66664V4.63636Z" fill="#31C3BD"/>
</svg>
