<svg width="18" height="18" viewBox="0 0 18 18" fill="none" xmlns="http://www.w3.org/2000/svg">
<path d="M9 0C4.0374 0 0 4.03745 0 9.00005C0 13.9627 4.0374 18 9 18C13.9626 18 18 13.9627 18 9.00005C18 4.03745 13.9626 0 9 0ZM9 16.3636C4.93964 16.3636 1.63636 13.0604 1.63636 9.00005C1.63636 4.93975 4.93964 1.63636 9 1.63636C13.0604 1.63636 16.3636 4.93975 16.3636 9.00005C16.3636 13.0604 13.0603 16.3636 9 16.3636Z" fill="#DBE8ED"/>
<path d="M8.99987 3.81812C8.39845 3.81812 7.90918 4.30772 7.90918 4.90952C7.90918 5.51077 8.39845 5.99993 8.99987 5.99993C9.60129 5.99993 10.0906 5.51077 10.0906 4.90952C10.0906 4.30772 9.60129 3.81812 8.99987 3.81812Z" fill="#DBE8ED"/>
<path d="M8.99982 7.63647C8.54797 7.63647 8.18164 8.0028 8.18164 8.45466V13.3637C8.18164 13.8156 8.54797 14.1819 8.99982 14.1819C9.45168 14.1819 9.818 13.8156 9.818 13.3637V8.45466C9.818 8.0028 9.45168 7.63647 8.99982 7.63647Z" fill="#DBE8ED"/>
</svg>
